<?xml version="1.0" encoding="UTF-8"?>
<!DOCTYPE svg PUBLIC "-//W3C//DTD SVG 1.1//EN" "http://www.w3.org/Graphics/SVG/1.1/DTD/svg11.dtd">
<svg version="1.2" width="152.4mm" height="82.55mm" viewBox="0 0 15240 8255" preserveAspectRatio="xMidYMid" fill-rule="evenodd" clip-path="url(#presentation_clip_path)" stroke-width="28.222" stroke-linejoin="round" xmlns="http://www.w3.org/2000/svg" xmlns:ooo="http://xml.openoffice.org/svg/export" xmlns:xlink="http://www.w3.org/1999/xlink" xml:space="preserve">
 <defs class="ClipPathGroup">
  <clipPath id="presentation_clip_path" clipPathUnits="userSpaceOnUse">
   <rect x="0" y="0" width="15240" height="8255"/>
  </clipPath>
 </defs>
 <defs class="TextShapeIndex">
  <g ooo:slide="id1" ooo:id-list="id3 id4 id5 id6 id7 id8 id9 id10 id11 id12 id13 id14 id15 id16 id17 id18 id19 id20 id21 id22 id23 id24 id25 id26 id27 id28 id29 id30 id31 id32 id33 id34 id35 id36 id37 id38 id39 id40 id41 id42 id43 id44 id45 id46 id47 id48 id49 id50 id51 id52 id53 id54 id55 id56 id57 id58 id59"/>
 </defs>
 <defs class="EmbeddedBulletChars">
  <g id="bullet-char-template(57356)" transform="scale(0.00048828125,-0.00048828125)">
   <path d="M 580,1141 L 1163,571 580,0 -4,571 580,1141 Z"/>
  </g>
  <g id="bullet-char-template(57354)" transform="scale(0.00048828125,-0.00048828125)">
   <path d="M 8,1128 L 1137,1128 1137,0 8,0 8,1128 Z"/>
  </g>
  <g id="bullet-char-template(10146)" transform="scale(0.00048828125,-0.00048828125)">
   <path d="M 174,0 L 602,739 174,1481 1456,739 174,0 Z M 1358,739 L 309,1346 659,739 1358,739 Z"/>
  </g>
  <g id="bullet-char-template(10132)" transform="scale(0.00048828125,-0.00048828125)">
   <path d="M 2015,739 L 1276,0 717,0 1260,543 174,543 174,936 1260,936 717,1481 1274,1481 2015,739 Z"/>
  </g>
  <g id="bullet-char-template(10007)" transform="scale(0.00048828125,-0.00048828125)">
   <path d="M 0,-2 C -7,14 -16,27 -25,37 L 356,567 C 262,823 215,952 215,954 215,979 228,992 255,992 264,992 276,990 289,987 310,991 331,999 354,1012 L 381,999 492,748 772,1049 836,1024 860,1049 C 881,1039 901,1025 922,1006 886,937 835,863 770,784 769,783 710,716 594,584 L 774,223 C 774,196 753,168 711,139 L 727,119 C 717,90 699,76 672,76 641,76 570,178 457,381 L 164,-76 C 142,-110 111,-127 72,-127 30,-127 9,-110 8,-76 1,-67 -2,-52 -2,-32 -2,-23 -1,-13 0,-2 Z"/>
  </g>
  <g id="bullet-char-template(10004)" transform="scale(0.00048828125,-0.00048828125)">
   <path d="M 285,-33 C 182,-33 111,30 74,156 52,228 41,333 41,471 41,549 55,616 82,672 116,743 169,778 240,778 293,778 328,747 346,684 L 369,508 C 377,444 397,411 428,410 L 1163,1116 C 1174,1127 1196,1133 1229,1133 1271,1133 1292,1118 1292,1087 L 1292,965 C 1292,929 1282,901 1262,881 L 442,47 C 390,-6 338,-33 285,-33 Z"/>
  </g>
  <g id="bullet-char-template(9679)" transform="scale(0.00048828125,-0.00048828125)">
   <path d="M 813,0 C 632,0 489,54 383,161 276,268 223,411 223,592 223,773 276,916 383,1023 489,1130 632,1184 813,1184 992,1184 1136,1130 1245,1023 1353,916 1407,772 1407,592 1407,412 1353,268 1245,161 1136,54 992,0 813,0 Z"/>
  </g>
  <g id="bullet-char-template(8226)" transform="scale(0.00048828125,-0.00048828125)">
   <path d="M 346,457 C 273,457 209,483 155,535 101,586 74,649 74,723 74,796 101,859 155,911 209,963 273,989 346,989 419,989 480,963 531,910 582,859 608,796 608,723 608,648 583,586 532,535 482,483 420,457 346,457 Z"/>
  </g>
  <g id="bullet-char-template(8211)" transform="scale(0.00048828125,-0.00048828125)">
   <path d="M -4,459 L 1135,459 1135,606 -4,606 -4,459 Z"/>
  </g>
 </defs>
 <defs class="TextEmbeddedBitmaps"/>
 <g>
  <g id="id2" class="Master_Slide">
   <g id="bg-id2" class="Background"/>
   <g id="bo-id2" class="BackgroundObjects"/>
  </g>
 </g>
 <g class="SlideGroup">
  <g>
   <g id="id1" class="Slide" clip-path="url(#presentation_clip_path)">
    <g class="Page">
     <g class="com.sun.star.drawing.CustomShape">
      <g id="id3">
       <path fill="none" stroke="rgb(0,0,0)" d="M 2857,5556 L 4128,5556 4128,6827 2857,6827 2857,5556 2857,5556 Z"/>
       <path fill="none" stroke="rgb(0,0,0)" d="M 2857,5556 L 2857,5556 Z"/>
       <path fill="none" stroke="rgb(0,0,0)" d="M 4128,6827 L 4128,6827 Z"/>
       <text class="TextShape"><tspan class="TextParagraph" font-family="Arial, sans-serif" font-size="494px" font-weight="400"><tspan class="TextPosition" x="3355" y="6363"><tspan fill="rgb(0,0,0)" stroke="none">1</tspan></tspan></tspan></text>
      </g>
     </g>
     <g class="com.sun.star.drawing.CustomShape">
      <g id="id4">
       <path fill="none" stroke="rgb(0,0,0)" d="M 2857,3016 L 4128,3016 4128,4287 2857,4287 2857,3016 2857,3016 Z"/>
       <path fill="none" stroke="rgb(0,0,0)" d="M 2857,3016 L 2857,3016 Z"/>
       <path fill="none" stroke="rgb(0,0,0)" d="M 4128,4287 L 4128,4287 Z"/>
       <text class="TextShape"><tspan class="TextParagraph" font-family="Arial, sans-serif" font-size="494px" font-weight="400"><tspan class="TextPosition" x="3355" y="3823"><tspan fill="rgb(0,0,0)" stroke="none">0</tspan></tspan></tspan></text>
      </g>
     </g>
     <g class="com.sun.star.drawing.CustomShape">
      <g id="id5">
       <path fill="none" stroke="rgb(0,0,0)" d="M 2857,1746 L 4128,1746 4128,3017 2857,3017 2857,1746 2857,1746 Z"/>
       <path fill="none" stroke="rgb(0,0,0)" d="M 2857,1746 L 2857,1746 Z"/>
       <path fill="none" stroke="rgb(0,0,0)" d="M 4128,3017 L 4128,3017 Z"/>
       <text class="TextShape"><tspan class="TextParagraph" font-family="Arial, sans-serif" font-size="494px" font-weight="400"><tspan class="TextPosition" x="3369" y="2553"><tspan fill="rgb(0,0,0)" stroke="none">z</tspan></tspan></tspan></text>
      </g>
     </g>
     <g class="com.sun.star.drawing.CustomShape">
      <g id="id6">
       <path fill="none" stroke="rgb(0,0,0)" d="M 2857,4286 L 4128,4286 4128,5557 2857,5557 2857,4286 2857,4286 Z"/>
       <path fill="none" stroke="rgb(0,0,0)" d="M 2857,4286 L 2857,4286 Z"/>
       <path fill="none" stroke="rgb(0,0,0)" d="M 4128,5557 L 4128,5557 Z"/>
       <text class="TextShape"><tspan class="TextParagraph" font-family="Arial, sans-serif" font-size="494px" font-weight="400"><tspan class="TextPosition" x="3355" y="5093"><tspan fill="rgb(0,0,0)" stroke="none">1</tspan></tspan></tspan></text>
      </g>
     </g>
     <g class="com.sun.star.drawing.CustomShape">
      <g id="id7">
       <path fill="none" stroke="rgb(0,0,0)" d="M 1587,5556 L 2858,5556 2858,6827 1587,6827 1587,5556 1587,5556 Z"/>
       <path fill="none" stroke="rgb(0,0,0)" d="M 1587,5556 L 1587,5556 Z"/>
       <path fill="none" stroke="rgb(0,0,0)" d="M 2858,6827 L 2858,6827 Z"/>
       <text class="TextShape"><tspan class="TextParagraph" font-family="Arial, sans-serif" font-size="494px" font-weight="400"><tspan class="TextPosition" x="2085" y="6363"><tspan fill="rgb(0,0,0)" stroke="none">0</tspan></tspan></tspan></text>
      </g>
     </g>
     <g class="com.sun.star.drawing.CustomShape">
      <g id="id8">
       <path fill="none" stroke="rgb(0,0,0)" d="M 1587,3016 L 2858,3016 2858,4287 1587,4287 1587,3016 1587,3016 Z"/>
       <path fill="none" stroke="rgb(0,0,0)" d="M 1587,3016 L 1587,3016 Z"/>
       <path fill="none" stroke="rgb(0,0,0)" d="M 2858,4287 L 2858,4287 Z"/>
       <text class="TextShape"><tspan class="TextParagraph" font-family="Arial, sans-serif" font-size="494px" font-weight="400"><tspan class="TextPosition" x="2085" y="3823"><tspan fill="rgb(0,0,0)" stroke="none">0</tspan></tspan></tspan></text>
      </g>
     </g>
     <g class="com.sun.star.drawing.CustomShape">
      <g id="id9">
       <path fill="none" stroke="rgb(0,0,0)" d="M 1587,1746 L 2858,1746 2858,3017 1587,3017 1587,1746 1587,1746 Z"/>
       <path fill="none" stroke="rgb(0,0,0)" d="M 1587,1746 L 1587,1746 Z"/>
       <path fill="none" stroke="rgb(0,0,0)" d="M 2858,3017 L 2858,3017 Z"/>
       <text class="TextShape"><tspan class="TextParagraph" font-family="Arial, sans-serif" font-size="494px" font-weight="400"><tspan class="TextPosition" x="2099" y="2553"><tspan fill="rgb(0,0,0)" stroke="none">y</tspan></tspan></tspan></text>
      </g>
     </g>
     <g class="com.sun.star.drawing.CustomShape">
      <g id="id10">
       <path fill="none" stroke="rgb(0,0,0)" d="M 1587,4286 L 2858,4286 2858,5557 1587,5557 1587,4286 1587,4286 Z"/>
       <path fill="none" stroke="rgb(0,0,0)" d="M 1587,4286 L 1587,4286 Z"/>
       <path fill="none" stroke="rgb(0,0,0)" d="M 2858,5557 L 2858,5557 Z"/>
       <text class="TextShape"><tspan class="TextParagraph" font-family="Arial, sans-serif" font-size="494px" font-weight="400"><tspan class="TextPosition" x="2085" y="5093"><tspan fill="rgb(0,0,0)" stroke="none">1</tspan></tspan></tspan></text>
      </g>
     </g>
     <g class="com.sun.star.drawing.CustomShape">
      <g id="id11">
       <path fill="none" stroke="rgb(0,0,0)" d="M 2857,6826 L 4128,6826 4128,8097 2857,8097 2857,6826 2857,6826 Z"/>
       <path fill="none" stroke="rgb(0,0,0)" d="M 2857,6826 L 2857,6826 Z"/>
       <path fill="none" stroke="rgb(0,0,0)" d="M 4128,8097 L 4128,8097 Z"/>
       <text class="TextShape"><tspan class="TextParagraph" font-family="Arial, sans-serif" font-size="494px" font-weight="400"><tspan class="TextPosition" x="3355" y="7633"><tspan fill="rgb(0,0,0)" stroke="none">1</tspan></tspan></tspan></text>
      </g>
     </g>
     <g class="com.sun.star.drawing.CustomShape">
      <g id="id12">
       <path fill="none" stroke="rgb(0,0,0)" d="M 1587,6826 L 2858,6826 2858,8097 1587,8097 1587,6826 1587,6826 Z"/>
       <path fill="none" stroke="rgb(0,0,0)" d="M 1587,6826 L 1587,6826 Z"/>
       <path fill="none" stroke="rgb(0,0,0)" d="M 2858,8097 L 2858,8097 Z"/>
       <text class="TextShape"><tspan class="TextParagraph" font-family="Arial, sans-serif" font-size="494px" font-weight="400"><tspan class="TextPosition" x="2085" y="7633"><tspan fill="rgb(0,0,0)" stroke="none">1</tspan></tspan></tspan></text>
      </g>
     </g>
     <g class="com.sun.star.drawing.CustomShape">
      <g id="id13">
       <path fill="none" stroke="rgb(0,0,0)" d="M 317,5556 L 1588,5556 1588,6827 317,6827 317,5556 317,5556 Z"/>
       <path fill="none" stroke="rgb(0,0,0)" d="M 317,5556 L 317,5556 Z"/>
       <path fill="none" stroke="rgb(0,0,0)" d="M 1588,6827 L 1588,6827 Z"/>
       <text class="TextShape"><tspan class="TextParagraph" font-family="Arial, sans-serif" font-size="494px" font-weight="400"><tspan class="TextPosition" x="815" y="6363"><tspan fill="rgb(0,0,0)" stroke="none">1</tspan></tspan></tspan></text>
      </g>
     </g>
     <g class="com.sun.star.drawing.CustomShape">
      <g id="id14">
       <path fill="none" stroke="rgb(0,0,0)" d="M 317,3016 L 1588,3016 1588,4287 317,4287 317,3016 317,3016 Z"/>
       <path fill="none" stroke="rgb(0,0,0)" d="M 317,3016 L 317,3016 Z"/>
       <path fill="none" stroke="rgb(0,0,0)" d="M 1588,4287 L 1588,4287 Z"/>
       <text class="TextShape"><tspan class="TextParagraph" font-family="Arial, sans-serif" font-size="494px" font-weight="400"><tspan class="TextPosition" x="815" y="3823"><tspan fill="rgb(0,0,0)" stroke="none">0</tspan></tspan></tspan></text>
      </g>
     </g>
     <g class="com.sun.star.drawing.CustomShape">
      <g id="id15">
       <path fill="none" stroke="rgb(0,0,0)" d="M 317,1746 L 1588,1746 1588,3017 317,3017 317,1746 317,1746 Z"/>
       <path fill="none" stroke="rgb(0,0,0)" d="M 317,1746 L 317,1746 Z"/>
       <path fill="none" stroke="rgb(0,0,0)" d="M 1588,3017 L 1588,3017 Z"/>
       <text class="TextShape"><tspan class="TextParagraph" font-family="Arial, sans-serif" font-size="494px" font-weight="400"><tspan class="TextPosition" x="829" y="2553"><tspan fill="rgb(0,0,0)" stroke="none">x</tspan></tspan></tspan></text>
      </g>
     </g>
     <g class="com.sun.star.drawing.CustomShape">
      <g id="id16">
       <path fill="none" stroke="rgb(0,0,0)" d="M 317,4286 L 1588,4286 1588,5557 317,5557 317,4286 317,4286 Z"/>
       <path fill="none" stroke="rgb(0,0,0)" d="M 317,4286 L 317,4286 Z"/>
       <path fill="none" stroke="rgb(0,0,0)" d="M 1588,5557 L 1588,5557 Z"/>
       <text class="TextShape"><tspan class="TextParagraph" font-family="Arial, sans-serif" font-size="494px" font-weight="400"><tspan class="TextPosition" x="815" y="5093"><tspan fill="rgb(0,0,0)" stroke="none">0</tspan></tspan></tspan></text>
      </g>
     </g>
     <g class="com.sun.star.drawing.CustomShape">
      <g id="id17">
       <path fill="none" stroke="rgb(0,0,0)" d="M 317,6826 L 1588,6826 1588,8097 317,8097 317,6826 317,6826 Z"/>
       <path fill="none" stroke="rgb(0,0,0)" d="M 317,6826 L 317,6826 Z"/>
       <path fill="none" stroke="rgb(0,0,0)" d="M 1588,8097 L 1588,8097 Z"/>
       <text class="TextShape"><tspan class="TextParagraph" font-family="Arial, sans-serif" font-size="494px" font-weight="400"><tspan class="TextPosition" x="815" y="7633"><tspan fill="rgb(0,0,0)" stroke="none">1</tspan></tspan></tspan></text>
      </g>
     </g>
     <g class="com.sun.star.drawing.CustomShape">
      <g id="id18">
       <text class="TextShape"><tspan class="TextParagraph" font-family="Arial, sans-serif" font-size="494px" font-weight="400"><tspan class="TextPosition" x="1555" y="1283"><tspan fill="rgb(0,0,0)" stroke="none">OR (|)</tspan></tspan></tspan></text>
      </g>
     </g>
     <g class="com.sun.star.drawing.LineShape">
      <g id="id19">
       <path fill="none" stroke="rgb(0,0,0)" d="M 2857,1746 L 2857,8096"/>
      </g>
     </g>
     <g class="com.sun.star.drawing.LineShape">
      <g id="id20">
       <path fill="none" stroke="rgb(0,0,0)" stroke-width="203" d="M 2857,8096 L 2857,1746"/>
      </g>
     </g>
     <g class="com.sun.star.drawing.LineShape">
      <g id="id21">
       <path fill="none" stroke="rgb(0,0,0)" stroke-width="203" d="M 4127,3016 L 317,3016"/>
      </g>
     </g>
     <g class="com.sun.star.drawing.CustomShape">
      <g id="id22">
       <path fill="none" stroke="rgb(0,0,0)" d="M 7937,5556 L 9208,5556 9208,6827 7937,6827 7937,5556 7937,5556 Z"/>
       <path fill="none" stroke="rgb(0,0,0)" d="M 7937,5556 L 7937,5556 Z"/>
       <path fill="none" stroke="rgb(0,0,0)" d="M 9208,6827 L 9208,6827 Z"/>
       <text class="TextShape"><tspan class="TextParagraph" font-family="Arial, sans-serif" font-size="494px" font-weight="400"><tspan class="TextPosition" x="8435" y="6363"><tspan fill="rgb(0,0,0)" stroke="none">0</tspan></tspan></tspan></text>
      </g>
     </g>
     <g class="com.sun.star.drawing.CustomShape">
      <g id="id23">
       <path fill="none" stroke="rgb(0,0,0)" d="M 7937,3016 L 9208,3016 9208,4287 7937,4287 7937,3016 7937,3016 Z"/>
       <path fill="none" stroke="rgb(0,0,0)" d="M 7937,3016 L 7937,3016 Z"/>
       <path fill="none" stroke="rgb(0,0,0)" d="M 9208,4287 L 9208,4287 Z"/>
       <text class="TextShape"><tspan class="TextParagraph" font-family="Arial, sans-serif" font-size="494px" font-weight="400"><tspan class="TextPosition" x="8435" y="3823"><tspan fill="rgb(0,0,0)" stroke="none">0</tspan></tspan></tspan></text>
      </g>
     </g>
     <g class="com.sun.star.drawing.CustomShape">
      <g id="id24">
       <path fill="none" stroke="rgb(0,0,0)" d="M 7937,1746 L 9208,1746 9208,3017 7937,3017 7937,1746 7937,1746 Z"/>
       <path fill="none" stroke="rgb(0,0,0)" d="M 7937,1746 L 7937,1746 Z"/>
       <path fill="none" stroke="rgb(0,0,0)" d="M 9208,3017 L 9208,3017 Z"/>
       <text class="TextShape"><tspan class="TextParagraph" font-family="Arial, sans-serif" font-size="494px" font-weight="400"><tspan class="TextPosition" x="8449" y="2553"><tspan fill="rgb(0,0,0)" stroke="none">z</tspan></tspan></tspan></text>
      </g>
     </g>
     <g class="com.sun.star.drawing.CustomShape">
      <g id="id25">
       <path fill="none" stroke="rgb(0,0,0)" d="M 7937,4286 L 9208,4286 9208,5557 7937,5557 7937,4286 7937,4286 Z"/>
       <path fill="none" stroke="rgb(0,0,0)" d="M 7937,4286 L 7937,4286 Z"/>
       <path fill="none" stroke="rgb(0,0,0)" d="M 9208,5557 L 9208,5557 Z"/>
       <text class="TextShape"><tspan class="TextParagraph" font-family="Arial, sans-serif" font-size="494px" font-weight="400"><tspan class="TextPosition" x="8435" y="5093"><tspan fill="rgb(0,0,0)" stroke="none">0</tspan></tspan></tspan></text>
      </g>
     </g>
     <g class="com.sun.star.drawing.CustomShape">
      <g id="id26">
       <path fill="none" stroke="rgb(0,0,0)" d="M 6667,5556 L 7938,5556 7938,6827 6667,6827 6667,5556 6667,5556 Z"/>
       <path fill="none" stroke="rgb(0,0,0)" d="M 6667,5556 L 6667,5556 Z"/>
       <path fill="none" stroke="rgb(0,0,0)" d="M 7938,6827 L 7938,6827 Z"/>
       <text class="TextShape"><tspan class="TextParagraph" font-family="Arial, sans-serif" font-size="494px" font-weight="400"><tspan class="TextPosition" x="7165" y="6363"><tspan fill="rgb(0,0,0)" stroke="none">0</tspan></tspan></tspan></text>
      </g>
     </g>
     <g class="com.sun.star.drawing.CustomShape">
      <g id="id27">
       <path fill="none" stroke="rgb(0,0,0)" d="M 6667,3016 L 7938,3016 7938,4287 6667,4287 6667,3016 6667,3016 Z"/>
       <path fill="none" stroke="rgb(0,0,0)" d="M 6667,3016 L 6667,3016 Z"/>
       <path fill="none" stroke="rgb(0,0,0)" d="M 7938,4287 L 7938,4287 Z"/>
       <text class="TextShape"><tspan class="TextParagraph" font-family="Arial, sans-serif" font-size="494px" font-weight="400"><tspan class="TextPosition" x="7165" y="3823"><tspan fill="rgb(0,0,0)" stroke="none">0</tspan></tspan></tspan></text>
      </g>
     </g>
     <g class="com.sun.star.drawing.CustomShape">
      <g id="id28">
       <path fill="none" stroke="rgb(0,0,0)" d="M 6667,1746 L 7938,1746 7938,3017 6667,3017 6667,1746 6667,1746 Z"/>
       <path fill="none" stroke="rgb(0,0,0)" d="M 6667,1746 L 6667,1746 Z"/>
       <path fill="none" stroke="rgb(0,0,0)" d="M 7938,3017 L 7938,3017 Z"/>
       <text class="TextShape"><tspan class="TextParagraph" font-family="Arial, sans-serif" font-size="494px" font-weight="400"><tspan class="TextPosition" x="7179" y="2553"><tspan fill="rgb(0,0,0)" stroke="none">y</tspan></tspan></tspan></text>
      </g>
     </g>
     <g class="com.sun.star.drawing.CustomShape">
      <g id="id29">
       <path fill="none" stroke="rgb(0,0,0)" d="M 6667,4286 L 7938,4286 7938,5557 6667,5557 6667,4286 6667,4286 Z"/>
       <path fill="none" stroke="rgb(0,0,0)" d="M 6667,4286 L 6667,4286 Z"/>
       <path fill="none" stroke="rgb(0,0,0)" d="M 7938,5557 L 7938,5557 Z"/>
       <text class="TextShape"><tspan class="TextParagraph" font-family="Arial, sans-serif" font-size="494px" font-weight="400"><tspan class="TextPosition" x="7165" y="5093"><tspan fill="rgb(0,0,0)" stroke="none">1</tspan></tspan></tspan></text>
      </g>
     </g>
     <g class="com.sun.star.drawing.CustomShape">
      <g id="id30">
       <path fill="none" stroke="rgb(0,0,0)" d="M 7937,6826 L 9208,6826 9208,8097 7937,8097 7937,6826 7937,6826 Z"/>
       <path fill="none" stroke="rgb(0,0,0)" d="M 7937,6826 L 7937,6826 Z"/>
       <path fill="none" stroke="rgb(0,0,0)" d="M 9208,8097 L 9208,8097 Z"/>
       <text class="TextShape"><tspan class="TextParagraph" font-family="Arial, sans-serif" font-size="494px" font-weight="400"><tspan class="TextPosition" x="8435" y="7633"><tspan fill="rgb(0,0,0)" stroke="none">1</tspan></tspan></tspan></text>
      </g>
     </g>
     <g class="com.sun.star.drawing.CustomShape">
      <g id="id31">
       <path fill="none" stroke="rgb(0,0,0)" d="M 6667,6826 L 7938,6826 7938,8097 6667,8097 6667,6826 6667,6826 Z"/>
       <path fill="none" stroke="rgb(0,0,0)" d="M 6667,6826 L 6667,6826 Z"/>
       <path fill="none" stroke="rgb(0,0,0)" d="M 7938,8097 L 7938,8097 Z"/>
       <text class="TextShape"><tspan class="TextParagraph" font-family="Arial, sans-serif" font-size="494px" font-weight="400"><tspan class="TextPosition" x="7165" y="7633"><tspan fill="rgb(0,0,0)" stroke="none">1</tspan></tspan></tspan></text>
      </g>
     </g>
     <g class="com.sun.star.drawing.CustomShape">
      <g id="id32">
       <path fill="none" stroke="rgb(0,0,0)" d="M 5397,5556 L 6668,5556 6668,6827 5397,6827 5397,5556 5397,5556 Z"/>
       <path fill="none" stroke="rgb(0,0,0)" d="M 5397,5556 L 5397,5556 Z"/>
       <path fill="none" stroke="rgb(0,0,0)" d="M 6668,6827 L 6668,6827 Z"/>
       <text class="TextShape"><tspan class="TextParagraph" font-family="Arial, sans-serif" font-size="494px" font-weight="400"><tspan class="TextPosition" x="5895" y="6363"><tspan fill="rgb(0,0,0)" stroke="none">1</tspan></tspan></tspan></text>
      </g>
     </g>
     <g class="com.sun.star.drawing.CustomShape">
      <g id="id33">
       <path fill="none" stroke="rgb(0,0,0)" d="M 5397,3016 L 6668,3016 6668,4287 5397,4287 5397,3016 5397,3016 Z"/>
       <path fill="none" stroke="rgb(0,0,0)" d="M 5397,3016 L 5397,3016 Z"/>
       <path fill="none" stroke="rgb(0,0,0)" d="M 6668,4287 L 6668,4287 Z"/>
       <text class="TextShape"><tspan class="TextParagraph" font-family="Arial, sans-serif" font-size="494px" font-weight="400"><tspan class="TextPosition" x="5895" y="3823"><tspan fill="rgb(0,0,0)" stroke="none">0</tspan></tspan></tspan></text>
      </g>
     </g>
     <g class="com.sun.star.drawing.CustomShape">
      <g id="id34">
       <path fill="none" stroke="rgb(0,0,0)" d="M 5397,1746 L 6668,1746 6668,3017 5397,3017 5397,1746 5397,1746 Z"/>
       <path fill="none" stroke="rgb(0,0,0)" d="M 5397,1746 L 5397,1746 Z"/>
       <path fill="none" stroke="rgb(0,0,0)" d="M 6668,3017 L 6668,3017 Z"/>
       <text class="TextShape"><tspan class="TextParagraph" font-family="Arial, sans-serif" font-size="494px" font-weight="400"><tspan class="TextPosition" x="5909" y="2553"><tspan fill="rgb(0,0,0)" stroke="none">x</tspan></tspan></tspan></text>
      </g>
     </g>
     <g class="com.sun.star.drawing.CustomShape">
      <g id="id35">
       <path fill="none" stroke="rgb(0,0,0)" d="M 5397,4286 L 6668,4286 6668,5557 5397,5557 5397,4286 5397,4286 Z"/>
       <path fill="none" stroke="rgb(0,0,0)" d="M 5397,4286 L 5397,4286 Z"/>
       <path fill="none" stroke="rgb(0,0,0)" d="M 6668,5557 L 6668,5557 Z"/>
       <text class="TextShape"><tspan class="TextParagraph" font-family="Arial, sans-serif" font-size="494px" font-weight="400"><tspan class="TextPosition" x="5895" y="5093"><tspan fill="rgb(0,0,0)" stroke="none">0</tspan></tspan></tspan></text>
      </g>
     </g>
     <g class="com.sun.star.drawing.CustomShape">
      <g id="id36">
       <path fill="none" stroke="rgb(0,0,0)" d="M 5397,6826 L 6668,6826 6668,8097 5397,8097 5397,6826 5397,6826 Z"/>
       <path fill="none" stroke="rgb(0,0,0)" d="M 5397,6826 L 5397,6826 Z"/>
       <path fill="none" stroke="rgb(0,0,0)" d="M 6668,8097 L 6668,8097 Z"/>
       <text class="TextShape"><tspan class="TextParagraph" font-family="Arial, sans-serif" font-size="494px" font-weight="400"><tspan class="TextPosition" x="5895" y="7633"><tspan fill="rgb(0,0,0)" stroke="none">1</tspan></tspan></tspan></text>
      </g>
     </g>
     <g class="com.sun.star.drawing.CustomShape">
      <g id="id37">
       <text class="TextShape"><tspan class="TextParagraph" font-family="Arial, sans-serif" font-size="494px" font-weight="400"><tspan class="TextPosition" x="6384" y="1283"><tspan fill="rgb(0,0,0)" stroke="none">AND (&amp;)</tspan></tspan></tspan></text>
      </g>
     </g>
     <g class="com.sun.star.drawing.LineShape">
      <g id="id38">
       <path fill="none" stroke="rgb(0,0,0)" d="M 7937,1746 L 7937,8096"/>
      </g>
     </g>
     <g class="com.sun.star.drawing.LineShape">
      <g id="id39">
       <path fill="none" stroke="rgb(0,0,0)" stroke-width="203" d="M 7937,8096 L 7937,1746"/>
      </g>
     </g>
     <g class="com.sun.star.drawing.LineShape">
      <g id="id40">
       <path fill="none" stroke="rgb(0,0,0)" stroke-width="203" d="M 9207,3016 L 5397,3016"/>
      </g>
     </g>
     <g class="com.sun.star.drawing.CustomShape">
      <g id="id41">
       <path fill="none" stroke="rgb(0,0,0)" d="M 13017,5556 L 14288,5556 14288,6827 13017,6827 13017,5556 13017,5556 Z"/>
       <path fill="none" stroke="rgb(0,0,0)" d="M 13017,5556 L 13017,5556 Z"/>
       <path fill="none" stroke="rgb(0,0,0)" d="M 14288,6827 L 14288,6827 Z"/>
       <text class="TextShape"><tspan class="TextParagraph" font-family="Arial, sans-serif" font-size="494px" font-weight="400"><tspan class="TextPosition" x="13515" y="6363"><tspan fill="rgb(0,0,0)" stroke="none">1</tspan></tspan></tspan></text>
      </g>
     </g>
     <g class="com.sun.star.drawing.CustomShape">
      <g id="id42">
       <path fill="none" stroke="rgb(0,0,0)" d="M 13017,3016 L 14288,3016 14288,4287 13017,4287 13017,3016 13017,3016 Z"/>
       <path fill="none" stroke="rgb(0,0,0)" d="M 13017,3016 L 13017,3016 Z"/>
       <path fill="none" stroke="rgb(0,0,0)" d="M 14288,4287 L 14288,4287 Z"/>
       <text class="TextShape"><tspan class="TextParagraph" font-family="Arial, sans-serif" font-size="494px" font-weight="400"><tspan class="TextPosition" x="13515" y="3823"><tspan fill="rgb(0,0,0)" stroke="none">0</tspan></tspan></tspan></text>
      </g>
     </g>
     <g class="com.sun.star.drawing.CustomShape">
      <g id="id43">
       <path fill="none" stroke="rgb(0,0,0)" d="M 13017,1746 L 14288,1746 14288,3017 13017,3017 13017,1746 13017,1746 Z"/>
       <path fill="none" stroke="rgb(0,0,0)" d="M 13017,1746 L 13017,1746 Z"/>
       <path fill="none" stroke="rgb(0,0,0)" d="M 14288,3017 L 14288,3017 Z"/>
       <text class="TextShape"><tspan class="TextParagraph" font-family="Arial, sans-serif" font-size="494px" font-weight="400"><tspan class="TextPosition" x="13529" y="2553"><tspan fill="rgb(0,0,0)" stroke="none">z</tspan></tspan></tspan></text>
      </g>
     </g>
     <g class="com.sun.star.drawing.CustomShape">
      <g id="id44">
       <path fill="none" stroke="rgb(0,0,0)" d="M 13017,4286 L 14288,4286 14288,5557 13017,5557 13017,4286 13017,4286 Z"/>
       <path fill="none" stroke="rgb(0,0,0)" d="M 13017,4286 L 13017,4286 Z"/>
       <path fill="none" stroke="rgb(0,0,0)" d="M 14288,5557 L 14288,5557 Z"/>
       <text class="TextShape"><tspan class="TextParagraph" font-family="Arial, sans-serif" font-size="494px" font-weight="400"><tspan class="TextPosition" x="13515" y="5093"><tspan fill="rgb(0,0,0)" stroke="none">1</tspan></tspan></tspan></text>
      </g>
     </g>
     <g class="com.sun.star.drawing.CustomShape">
      <g id="id45">
       <path fill="none" stroke="rgb(0,0,0)" d="M 11747,5556 L 13018,5556 13018,6827 11747,6827 11747,5556 11747,5556 Z"/>
       <path fill="none" stroke="rgb(0,0,0)" d="M 11747,5556 L 11747,5556 Z"/>
       <path fill="none" stroke="rgb(0,0,0)" d="M 13018,6827 L 13018,6827 Z"/>
       <text class="TextShape"><tspan class="TextParagraph" font-family="Arial, sans-serif" font-size="494px" font-weight="400"><tspan class="TextPosition" x="12245" y="6363"><tspan fill="rgb(0,0,0)" stroke="none">0</tspan></tspan></tspan></text>
      </g>
     </g>
     <g class="com.sun.star.drawing.CustomShape">
      <g id="id46">
       <path fill="none" stroke="rgb(0,0,0)" d="M 11747,3016 L 13018,3016 13018,4287 11747,4287 11747,3016 11747,3016 Z"/>
       <path fill="none" stroke="rgb(0,0,0)" d="M 11747,3016 L 11747,3016 Z"/>
       <path fill="none" stroke="rgb(0,0,0)" d="M 13018,4287 L 13018,4287 Z"/>
       <text class="TextShape"><tspan class="TextParagraph" font-family="Arial, sans-serif" font-size="494px" font-weight="400"><tspan class="TextPosition" x="12245" y="3823"><tspan fill="rgb(0,0,0)" stroke="none">0</tspan></tspan></tspan></text>
      </g>
     </g>
     <g class="com.sun.star.drawing.CustomShape">
      <g id="id47">
       <path fill="none" stroke="rgb(0,0,0)" d="M 11747,1746 L 13018,1746 13018,3017 11747,3017 11747,1746 11747,1746 Z"/>
       <path fill="none" stroke="rgb(0,0,0)" d="M 11747,1746 L 11747,1746 Z"/>
       <path fill="none" stroke="rgb(0,0,0)" d="M 13018,3017 L 13018,3017 Z"/>
       <text class="TextShape"><tspan class="TextParagraph" font-family="Arial, sans-serif" font-size="494px" font-weight="400"><tspan class="TextPosition" x="12259" y="2553"><tspan fill="rgb(0,0,0)" stroke="none">y</tspan></tspan></tspan></text>
      </g>
     </g>
     <g class="com.sun.star.drawing.CustomShape">
      <g id="id48">
       <path fill="none" stroke="rgb(0,0,0)" d="M 11747,4286 L 13018,4286 13018,5557 11747,5557 11747,4286 11747,4286 Z"/>
       <path fill="none" stroke="rgb(0,0,0)" d="M 11747,4286 L 11747,4286 Z"/>
       <path fill="none" stroke="rgb(0,0,0)" d="M 13018,5557 L 13018,5557 Z"/>
       <text class="TextShape"><tspan class="TextParagraph" font-family="Arial, sans-serif" font-size="494px" font-weight="400"><tspan class="TextPosition" x="12245" y="5093"><tspan fill="rgb(0,0,0)" stroke="none">1</tspan></tspan></tspan></text>
      </g>
     </g>
     <g class="com.sun.star.drawing.CustomShape">
      <g id="id49">
       <path fill="none" stroke="rgb(0,0,0)" d="M 13017,6826 L 14288,6826 14288,8097 13017,8097 13017,6826 13017,6826 Z"/>
       <path fill="none" stroke="rgb(0,0,0)" d="M 13017,6826 L 13017,6826 Z"/>
       <path fill="none" stroke="rgb(0,0,0)" d="M 14288,8097 L 14288,8097 Z"/>
       <text class="TextShape"><tspan class="TextParagraph" font-family="Arial, sans-serif" font-size="494px" font-weight="400"><tspan class="TextPosition" x="13515" y="7633"><tspan fill="rgb(0,0,0)" stroke="none">0</tspan></tspan></tspan></text>
      </g>
     </g>
     <g class="com.sun.star.drawing.CustomShape">
      <g id="id50">
       <path fill="none" stroke="rgb(0,0,0)" d="M 11747,6826 L 13018,6826 13018,8097 11747,8097 11747,6826 11747,6826 Z"/>
       <path fill="none" stroke="rgb(0,0,0)" d="M 11747,6826 L 11747,6826 Z"/>
       <path fill="none" stroke="rgb(0,0,0)" d="M 13018,8097 L 13018,8097 Z"/>
       <text class="TextShape"><tspan class="TextParagraph" font-family="Arial, sans-serif" font-size="494px" font-weight="400"><tspan class="TextPosition" x="12245" y="7633"><tspan fill="rgb(0,0,0)" stroke="none">1</tspan></tspan></tspan></text>
      </g>
     </g>
     <g class="com.sun.star.drawing.CustomShape">
      <g id="id51">
       <path fill="none" stroke="rgb(0,0,0)" d="M 10477,5556 L 11748,5556 11748,6827 10477,6827 10477,5556 10477,5556 Z"/>
       <path fill="none" stroke="rgb(0,0,0)" d="M 10477,5556 L 10477,5556 Z"/>
       <path fill="none" stroke="rgb(0,0,0)" d="M 11748,6827 L 11748,6827 Z"/>
       <text class="TextShape"><tspan class="TextParagraph" font-family="Arial, sans-serif" font-size="494px" font-weight="400"><tspan class="TextPosition" x="10975" y="6363"><tspan fill="rgb(0,0,0)" stroke="none">1</tspan></tspan></tspan></text>
      </g>
     </g>
     <g class="com.sun.star.drawing.CustomShape">
      <g id="id52">
       <path fill="none" stroke="rgb(0,0,0)" d="M 10477,3016 L 11748,3016 11748,4287 10477,4287 10477,3016 10477,3016 Z"/>
       <path fill="none" stroke="rgb(0,0,0)" d="M 10477,3016 L 10477,3016 Z"/>
       <path fill="none" stroke="rgb(0,0,0)" d="M 11748,4287 L 11748,4287 Z"/>
       <text class="TextShape"><tspan class="TextParagraph" font-family="Arial, sans-serif" font-size="494px" font-weight="400"><tspan class="TextPosition" x="10975" y="3823"><tspan fill="rgb(0,0,0)" stroke="none">0</tspan></tspan></tspan></text>
      </g>
     </g>
     <g class="com.sun.star.drawing.CustomShape">
      <g id="id53">
       <path fill="none" stroke="rgb(0,0,0)" d="M 10477,1746 L 11748,1746 11748,3017 10477,3017 10477,1746 10477,1746 Z"/>
       <path fill="none" stroke="rgb(0,0,0)" d="M 10477,1746 L 10477,1746 Z"/>
       <path fill="none" stroke="rgb(0,0,0)" d="M 11748,3017 L 11748,3017 Z"/>
       <text class="TextShape"><tspan class="TextParagraph" font-family="Arial, sans-serif" font-size="494px" font-weight="400"><tspan class="TextPosition" x="10989" y="2553"><tspan fill="rgb(0,0,0)" stroke="none">x</tspan></tspan></tspan></text>
      </g>
     </g>
     <g class="com.sun.star.drawing.CustomShape">
      <g id="id54">
       <path fill="none" stroke="rgb(0,0,0)" d="M 10477,4286 L 11748,4286 11748,5557 10477,5557 10477,4286 10477,4286 Z"/>
       <path fill="none" stroke="rgb(0,0,0)" d="M 10477,4286 L 10477,4286 Z"/>
       <path fill="none" stroke="rgb(0,0,0)" d="M 11748,5557 L 11748,5557 Z"/>
       <text class="TextShape"><tspan class="TextParagraph" font-family="Arial, sans-serif" font-size="494px" font-weight="400"><tspan class="TextPosition" x="10975" y="5093"><tspan fill="rgb(0,0,0)" stroke="none">0</tspan></tspan></tspan></text>
      </g>
     </g>
     <g class="com.sun.star.drawing.CustomShape">
      <g id="id55">
       <path fill="none" stroke="rgb(0,0,0)" d="M 10477,6826 L 11748,6826 11748,8097 10477,8097 10477,6826 10477,6826 Z"/>
       <path fill="none" stroke="rgb(0,0,0)" d="M 10477,6826 L 10477,6826 Z"/>
       <path fill="none" stroke="rgb(0,0,0)" d="M 11748,8097 L 11748,8097 Z"/>
       <text class="TextShape"><tspan class="TextParagraph" font-family="Arial, sans-serif" font-size="494px" font-weight="400"><tspan class="TextPosition" x="10975" y="7633"><tspan fill="rgb(0,0,0)" stroke="none">1</tspan></tspan></tspan></text>
      </g>
     </g>
     <g class="com.sun.star.drawing.CustomShape">
      <g id="id56">
       <text class="TextShape"><tspan class="TextParagraph" font-family="Arial, sans-serif" font-size="494px" font-weight="400"><tspan class="TextPosition" x="11497" y="1283"><tspan fill="rgb(0,0,0)" stroke="none">XOR (^)</tspan></tspan></tspan></text>
      </g>
     </g>
     <g class="com.sun.star.drawing.LineShape">
      <g id="id57">
       <path fill="none" stroke="rgb(0,0,0)" d="M 13017,1746 L 13017,8096"/>
      </g>
     </g>
     <g class="com.sun.star.drawing.LineShape">
      <g id="id58">
       <path fill="none" stroke="rgb(0,0,0)" stroke-width="203" d="M 13017,8096 L 13017,1746"/>
      </g>
     </g>
     <g class="com.sun.star.drawing.LineShape">
      <g id="id59">
       <path fill="none" stroke="rgb(0,0,0)" stroke-width="203" d="M 14287,3016 L 10477,3016"/>
      </g>
     </g>
    </g>
   </g>
  </g>
 </g>
</svg>